<?xml version="1.0" encoding="UTF-8"?>
<!-- Generated by Pixelmator Pro 3.7.1 -->
<svg width="1155" height="250" viewBox="0 0 1155 250" xmlns="http://www.w3.org/2000/svg">
    <path id="ee-background" fill="#ffffff" stroke="none" visibility="hidden" d="M 0 -0.633179 L 1155.021973 -0.633179 L 1155.021973 250 L 0 250 Z"/>
    <g id="Group">
        <path id="Path" fill="#e69b70" stroke="none" d="M 378.134369 129.680969 L 378.134369 129.680969"/>
        <path id="path1" fill="#e69b70" stroke="none" d="M 101.083397 22.545486 L 99.49115 22.545486 C 87.890495 22.318024 76.744766 28.232086 71.058167 38.013031 L 70.830704 38.013031 L 42.397717 87.827621 L 35.573803 87.827621 L 35.573803 77.136826 C 35.573803 77.136826 35.801266 71.450226 32.161842 71.905151 C 31.479454 71.905151 30.569597 71.905151 30.342134 72.132614 C 24.883001 73.497391 15.329519 76.226959 15.329519 76.226959 C 13.05488 77.364288 11.235169 79.411453 11.462633 81.913559 L 11.462633 89.419861 C 11.462633 89.419861 11.235169 91.694504 16.466839 92.376907 L 38.758297 92.376907 C 38.758297 92.60437 19.878796 112.166245 19.878796 112.166245 C 19.878796 112.166245 12.599953 118.080322 14.874592 142.418945 C 16.694302 166.757568 19.651333 226.353119 19.651333 226.353119 C 19.651333 226.353119 19.423868 236.361511 26.020321 236.816452 L 33.299164 236.816452 L 33.526627 237.043915 L 35.118874 237.043915 L 35.34634 236.816452 L 76.744766 236.816452 C 76.744766 237.043915 76.972221 237.043915 77.427155 237.043915 C 79.70179 236.816452 81.74897 235.451675 83.113747 234.086884 C 84.933456 232.039719 84.706001 220.439056 84.706001 220.439056 C 84.706001 220.439056 84.706001 218.846802 89.482735 218.846802 L 248.47998 218.846802 C 253.256714 218.846802 253.256714 220.439056 253.256714 220.439056 C 253.256714 220.439056 252.574341 231.812241 254.848969 234.086884 C 256.441223 235.679138 258.260925 236.361511 260.535583 237.043915 C 260.763031 237.043915 261.217957 237.043915 261.217957 236.816452 L 302.843842 236.816452 L 303.526215 237.043915 L 305.118469 237.043915 L 305.345947 236.816452 L 312.169861 236.816452 C 318.993774 236.588989 318.538849 226.353119 318.538849 226.353119 C 318.538849 226.353119 321.040955 166.530121 323.315582 142.418945 C 325.135284 118.080322 318.538849 112.166245 318.538849 112.166245 C 318.538849 112.166245 299.659363 92.376907 299.659363 91.921967 L 321.723328 91.921967 C 327.409943 91.694504 326.727539 88.964951 326.727539 88.964951 L 326.727539 81.458633 C 326.955017 79.18399 325.135284 76.681885 322.860657 75.772034 C 322.860657 75.772034 313.30719 73.497391 308.0755 71.677689 C 307.393097 71.450226 306.710754 71.450226 306.483276 71.450226 C 302.388916 71.222763 303.07132 76.681885 303.07132 76.681885 L 303.07132 87.372696 L 295.79248 87.372696 L 267.132019 37.558105 L 267.132019 37.558105 C 261.445404 27.777161 250.07222 21.863098 238.471573 22.090561 L 236.879333 22.090561 C 218.68222 22.772949 199.120331 23.22789 179.558426 23.22789 L 158.404297 23.22789 C 139.06987 23.682816 119.507965 23.22789 101.083397 22.545486 L 101.083397 22.545486 Z M 128.606522 190.413818 C 124.739632 190.413818 121.782608 187.684265 121.782608 184.272308 L 121.782608 184.272308 L 121.782608 184.272308 C 121.782608 180.632874 124.967102 177.675842 128.606522 177.675842 L 209.583664 177.675842 C 213.450546 177.675842 216.180115 180.632874 216.180115 184.272308 L 216.180115 184.272308 C 216.180115 187.911728 212.995621 190.868744 209.356201 190.868744 L 209.356201 190.868744 L 128.606522 190.413818 L 128.606522 190.413818 Z M 116.550941 162.208313 C 112.229118 162.208313 110.636879 158.113953 108.589706 154.24707 L 97.67144 133.77533 C 95.396805 129.908447 101.53833 125.814087 105.632675 125.814087 L 232.55751 125.814087 C 236.879333 126.04155 242.565918 129.908447 240.518738 133.77533 L 229.600479 154.24707 C 227.780777 158.113953 225.733597 162.208313 221.639236 162.208313 L 116.550941 162.208313 Z M 248.252518 146.51329 C 249.617294 141.509094 250.754623 134.685181 254.16658 132.638 C 258.943329 127.633804 276.003113 122.174667 288.286163 122.174667 L 289.878387 122.174667 C 298.976959 122.402122 317.40155 131.728149 306.938202 141.054169 C 303.753693 144.0112 299.659363 145.830902 295.565002 146.740768 L 248.252518 146.51329 Z M 169.777481 218.846802 L 169.777481 218.846802 M 45.354752 152.654816 C 41.260399 151.744965 37.16605 149.925247 33.981556 146.968231 C 23.518219 137.642212 41.942791 128.316193 51.041348 128.088715 L 52.633591 128.088715 C 64.916641 128.088715 81.976433 133.547852 86.753174 138.552063 C 90.165131 140.599243 91.302452 147.423157 92.667236 152.427368 L 45.354752 152.654816 Z"/>
        <g id="g1">
            <path id="path2" fill="#e6b9a0" stroke="none" d="M 948.841187 18.678604 L 1023.449402 18.678604 L 1023.449402 185.864548 L 1139.910889 185.864548 L 1139.910889 240.455872 L 948.841187 240.455872 L 948.841187 18.678604 Z"/>
            <path id="path3" fill="#eab191" stroke="none" d="M 871.958435 155.839325 L 845.345154 76.226959 L 818.959351 155.839325 L 871.958435 155.839325 Z M 887.425964 203.834198 L 802.58197 203.834198 L 790.981323 240.455872 L 714.780884 240.455872 L 805.539001 18.906067 L 886.971069 18.906067 L 977.729126 240.455872 L 899.481567 240.455872 L 887.425964 203.834198 Z"/>
            <path id="path4" fill="#e8a884" stroke="none" d="M 534.629517 18.678604 L 734.570313 18.678604 L 734.570313 65.991089 L 609.465149 65.991089 L 609.465149 101.247986 L 725.699158 101.247986 L 725.699158 146.51329 L 609.465149 146.51329 L 609.465149 190.186371 L 738.209656 190.186371 L 738.209656 240.455872 L 534.629517 240.455872 L 534.629517 18.678604 L 534.629517 18.678604 Z"/>
            <path id="path5" fill="#e6a179" stroke="none" d="M 339.238037 18.678604 L 450.01297 18.678604 C 471.849487 18.678604 489.591675 21.408173 503.012024 26.86731 C 516.432434 32.326431 527.578125 40.060211 536.449219 50.296082 C 545.320313 60.531967 551.689331 72.360077 555.556213 85.780441 C 559.423096 99.200821 561.470276 113.531036 561.470276 128.771118 C 561.470276 152.427368 558.513245 170.851929 552.599182 183.817368 C 546.68512 196.782822 538.496399 207.70108 528.033081 216.572174 C 517.569763 225.443268 506.423981 231.357315 494.368439 234.086884 C 477.990997 238.181244 463.205841 240.228409 449.785492 240.228409 L 339.01062 240.228409 L 339.01062 18.678604 L 339.238037 18.678604 Z M 413.846191 68.94812 L 413.846191 189.958908 L 432.043304 189.958908 C 447.738342 189.958908 458.656586 188.366638 465.253052 185.182159 C 471.849487 181.997665 477.081177 176.538528 480.720612 168.577301 C 484.360016 160.616058 486.407196 147.878082 486.407196 130.135895 C 486.407196 106.707123 482.312836 90.55719 473.896698 81.913559 C 465.480499 73.269928 451.605225 68.94812 432.270782 68.94812 L 413.846191 68.94812 Z"/>
        </g>
    </g>
</svg>
