<?xml version="1.0" encoding="UTF-8"?>
<!-- Generated by Pixelmator Pro 3.7.1 -->
<svg width="500" height="500" viewBox="0 0 500 500" xmlns="http://www.w3.org/2000/svg">
    <g id="Group">
        <path id="Path" fill="#0b2e4d" stroke="#aaaaaa" stroke-width="0.680691" d="M 265.409576 214.94812 L 265.409576 214.94812"/>
    </g>
    <path id="path1" fill="#e69b70" stroke="none" d="M 265.399994 256.700012 L 265.399994 256.700012 M 195.800003 83.899994 L 194.5 83.899994 C 185.199997 83.700012 176.199997 88.5 171.600006 96.399994 L 171.399994 96.399994 L 148.5 136.5 L 143 136.5 L 143 127.899994 C 143 127.899994 143.199997 123.299988 140.300003 123.700012 C 139.800003 123.700012 139 123.700012 138.800003 123.899994 C 134.399994 125 126.699997 127.200012 126.699997 127.200012 C 124.900002 128.100006 123.400002 129.799988 123.599998 131.799988 L 123.599998 137.799988 C 123.599998 137.799988 123.400002 139.600006 127.599998 140.200012 L 145.600006 140.200012 C 145.600006 140.399994 130.399994 156.100006 130.399994 156.100006 C 130.399994 156.100006 124.5 160.899994 126.400002 180.5 C 127.900002 200.100006 130.199997 248.100006 130.199997 248.100006 C 130.199997 248.100006 130 256.200012 135.300003 256.5 L 141.199997 256.5 L 141.399994 256.700012 L 142.699997 256.700012 L 142.899994 256.5 L 176.300003 256.5 C 176.300003 256.700012 176.5 256.700012 176.800003 256.700012 C 178.600006 256.5 180.300003 255.399994 181.399994 254.300003 C 182.899994 252.699997 182.699997 243.299988 182.699997 243.299988 C 182.699997 243.299988 182.699997 242 186.5 242 L 314.600006 242 C 318.399994 242 318.399994 243.299988 318.399994 243.299988 C 318.399994 243.299988 317.899994 252.5 319.700012 254.300003 C 321 255.600006 322.399994 256.100006 324.299988 256.700012 C 324.5 256.700012 324.799988 256.700012 324.799988 256.5 L 358.299988 256.5 L 358.799988 256.700012 L 360.100006 256.700012 L 360.299988 256.5 L 365.799988 256.5 C 371.299988 256.299988 370.899994 248.100006 370.899994 248.100006 C 370.899994 248.100006 372.899994 199.899994 374.700012 180.5 C 376.200012 160.899994 370.899994 156.100006 370.899994 156.100006 C 370.899994 156.100006 355.799988 140.100006 355.799988 139.799988 L 373.600006 139.799988 C 378.200012 139.600006 377.600006 137.399994 377.600006 137.399994 L 377.600006 131.399994 C 377.799988 129.600006 376.299988 127.600006 374.5 126.799988 C 374.5 126.799988 366.799988 125 362.600006 123.5 C 362.100006 123.299988 361.5 123.299988 361.299988 123.299988 C 358 123.100006 358.600006 127.5 358.600006 127.5 L 358.600006 136.100006 L 352.700012 136.100006 L 329.600006 96 L 329.600006 96 C 325 88.100006 315.899994 83.399994 306.5 83.5 L 305.200012 83.5 C 290.5 84 274.799988 84.399994 259 84.399994 L 242 84.399994 C 226.399994 84.799988 210.600006 84.399994 195.800003 83.899994 L 195.800003 83.899994 Z M 218.5 219.100006 C 215.399994 219.100006 213 216.899994 213 214.200012 L 213 214.200012 L 213 214.200012 C 213 211.299988 215.600006 208.899994 218.5 208.899994 L 283.799988 208.899994 C 286.899994 208.899994 289.100006 211.299988 289.100006 214.200012 L 289.100006 214.200012 C 289.100006 217.100006 286.5 219.5 283.600006 219.5 L 283.600006 219.5 L 218.5 219.100006 L 218.5 219.100006 Z M 208.300003 196.399994 C 204.800003 196.399994 203.5 193.100006 201.899994 190 L 193.100006 173.5 C 191.300003 170.399994 196.199997 167.100006 199.5 167.100006 L 301.799988 167.100006 C 305.299988 167.299988 309.899994 170.399994 308.200012 173.5 L 299.399994 190 C 297.899994 193.100006 296.299988 196.399994 293 196.399994 L 208.300003 196.399994 Z M 314.399994 183.700012 C 315.5 179.700012 316.399994 174.200012 319.200012 172.5 C 323 168.5 336.799988 164.100006 346.700012 164.100006 L 348 164.100006 C 355.299988 164.299988 370.200012 171.799988 361.700012 179.299988 C 359.100006 181.700012 355.799988 183.100006 352.5 183.899994 L 314.399994 183.700012 Z M 251.100006 242 L 251.100006 242 M 150.800003 188.700012 C 147.5 188 144.199997 186.5 141.600006 184.100006 C 133.199997 176.600006 148 169.100006 155.300003 168.899994 L 156.600006 168.899994 C 166.5 168.899994 180.199997 173.299988 184.100006 177.299988 C 186.800003 178.899994 187.800003 184.399994 188.899994 188.5 L 150.800003 188.700012 Z"/>
    <g id="g1">
        <path id="path2" fill="#e6b9a0" stroke="none" d="M 369.399994 283.700012 L 412 283.700012 L 412 376.299988 L 478.5 376.299988 L 478.5 406.600006 L 369.399994 406.600006 L 369.399994 283.700012 Z"/>
        <path id="path3" fill="#eab191" stroke="none" d="M 325.600006 359.700012 L 310.399994 315.5 L 295.299988 359.700012 L 325.600006 359.700012 Z M 334.399994 386.299988 L 286 386.299988 L 279.299988 406.600006 L 235.800003 406.600006 L 287.600006 283.700012 L 334.100006 283.700012 L 385.899994 406.600006 L 341.299988 406.600006 L 334.399994 386.299988 Z"/>
        <path id="path4" fill="#e8a884" stroke="none" d="M 133.100006 283.700012 L 247.300003 283.700012 L 247.300003 309.899994 L 175.800003 309.899994 L 175.800003 329.399994 L 242.100006 329.399994 L 242.100006 354.5 L 175.800003 354.5 L 175.800003 378.700012 L 249.300003 378.700012 L 249.300003 406.5 L 133.100006 406.5 L 133.100006 283.700012 Z"/>
        <path id="path5" fill="#e6a179" stroke="none" d="M 21.5 283.700012 L 84.800003 283.700012 C 97.300003 283.700012 107.400002 285.200012 115 288.200012 C 122.699997 291.200012 129 295.5 134 301.200012 C 139 306.799988 142.699997 313.399994 144.899994 320.899994 C 147.199997 328.399994 148.300003 336.299988 148.300003 344.700012 C 148.300003 357.799988 146.600006 368 143.300003 375.299988 C 139.899994 382.5 135.300003 388.600006 129.300003 393.5 C 123.300003 398.399994 116.900002 401.600006 110.099998 403.299988 C 100.800003 405.5 92.300003 406.700012 84.699997 406.700012 L 21.5 406.700012 L 21.5 283.700012 Z M 64.099998 311.5 L 64.099998 378.600006 L 74.5 378.600006 C 83.400002 378.600006 89.699997 377.700012 93.5 376 C 97.300003 374.299988 100.199997 371.200012 102.300003 366.799988 C 104.400002 362.399994 105.5 355.299988 105.5 345.5 C 105.5 332.5 103.099998 323.600006 98.400002 318.799988 C 93.599998 314 85.699997 311.600006 74.699997 311.600006 L 64.099998 311.5 L 64.099998 311.5 Z"/>
    </g>
</svg>
